<svg xmlns="http://www.w3.org/2000/svg" width="37" height="46.26" viewBox="0 0 37 46.26">
  <g id="Component_2_3" data-name="Component 2 – 3" transform="translate(4)">
    <g id="Group_121" data-name="Group 121" transform="translate(0 22.26)">
      <line id="Line_189" data-name="Line 189" x2="29" fill="none" stroke="#db2893" stroke-linecap="round" stroke-width="8"/>
      <line id="Line_190" data-name="Line 190" x2="29" transform="translate(0 10)" fill="none" stroke="#db2893" stroke-linecap="round" stroke-width="8"/>
      <line id="Line_191" data-name="Line 191" x2="29" transform="translate(0 20)" fill="none" stroke="#db2893" stroke-linecap="round" stroke-width="8"/>
    </g>
    <g id="Rectangle_134" data-name="Rectangle 134" transform="translate(2.893 8.845)" fill="#db2893" stroke="#db2893" stroke-width="1">
      <rect width="3" height="11" stroke="none"/>
      <rect x="0.5" y="0.5" width="2" height="10" fill="none"/>
    </g>
    <g id="Union_1" data-name="Union 1" transform="translate(4.526 0) rotate(21)" fill="#db2893">
      <path d="M 2.500200033187866 7.500100135803223 C 1.397289991378784 7.500100135803223 0.5000000596046448 6.602809906005859 0.5000000596046448 5.499899864196777 C 0.5000000596046448 5.223530292510986 0.5552100539207458 4.956120014190674 0.664110004901886 4.705100059509277 L 0.6813100576400757 4.665440082550049 L 0.6914500594139099 4.623420238494873 C 0.8428993225097656 3.995937347412109 1.706029176712036 2.429640531539917 2.274810791015625 1.44991147518158 C 2.423373222351074 1.872161030769348 2.651890516281128 2.350666284561157 3.003139972686768 2.836390018463135 C 3.363310098648071 3.334110021591187 3.668519973754883 3.750880002975464 3.910390138626099 4.075250148773193 L 3.928359985351562 4.099339962005615 L 3.949079990386963 4.121119976043701 C 4.304600238800049 4.494560241699219 4.500400066375732 4.984230041503906 4.500400066375732 5.499899864196777 C 4.500400066375732 6.602809906005859 3.603110074996948 7.500100135803223 2.500200033187866 7.500100135803223 Z" stroke="none"/>
      <path d="M 2.500200033187866 7.000100135803223 C 3.327409982681274 7.000100135803223 4.000400066375732 6.327110290527344 4.000400066375732 5.499899864196777 C 4.000400066375732 5.113160133361816 3.853569984436035 4.745930194854736 3.586940050125122 4.465869903564453 L 3.545490026473999 4.422329902648926 L 3.509550094604492 4.374130249023438 C 3.26626992225647 4.047860145568848 2.959630012512207 3.629160165786743 2.597970008850098 3.129379987716675 C 2.45656156539917 2.933831930160522 2.333353757858276 2.739654541015625 2.225911378860474 2.549147129058838 C 1.72844660282135 3.449727058410645 1.269971251487732 4.357582569122314 1.177500009536743 4.740730285644531 L 1.157209992408752 4.824769973754883 L 1.122810006141663 4.904079914093018 C 1.041320085525513 5.091929912567139 1 5.292389869689941 1 5.499899864196777 C 1 6.327110290527344 1.672990083694458 7.000100135803223 2.500200033187866 7.000100135803223 M 2.500200033187866 8.000100135803223 C 1.119600057601929 8.000100135803223 3.318786667705353e-08 6.880499839782715 3.318786667705353e-08 5.499899864196777 C 3.318786667705353e-08 5.146739959716797 0.07326003164052963 4.810739994049072 0.2054100334644318 4.506110191345215 C 0.4503800272941589 3.491150140762329 2.177999973297119 0.6309000849723816 2.177999973297119 0.6309000849723816 L 2.500200033187866 6.790160966829717e-08 C 2.500200033187866 6.790160966829717e-08 2.463299989700317 1.236600041389465 3.408299922943115 2.543400049209595 C 3.832119941711426 3.129080057144165 4.121210098266602 3.52154016494751 4.311220169067383 3.776360034942627 C 4.738240242004395 4.224910259246826 5.000400066375732 4.831850051879883 5.000400066375732 5.499899864196777 C 5.000400066375732 6.880499839782715 3.880800008773804 8.000100135803223 2.500200033187866 8.000100135803223 Z" stroke="none" fill="#db2893"/>
    </g>
    <g id="Rectangle_135" data-name="Rectangle 135" transform="translate(23.849 8.845)" fill="#db2893" stroke="#db2893" stroke-width="1">
      <rect width="3" height="11" stroke="none"/>
      <rect x="0.5" y="0.5" width="2" height="10" fill="none"/>
    </g>
    <g id="Union_2" data-name="Union 2" transform="translate(25.332) rotate(21)" fill="#db2893">
      <path d="M 2.500200033187866 7.500100135803223 C 1.397289991378784 7.500100135803223 0.5000000596046448 6.602809906005859 0.5000000596046448 5.499899864196777 C 0.5000000596046448 5.223530292510986 0.5552100539207458 4.956120014190674 0.664110004901886 4.705100059509277 L 0.6813100576400757 4.665440082550049 L 0.6914500594139099 4.623420238494873 C 0.8428993225097656 3.995937347412109 1.706029176712036 2.429640531539917 2.274810791015625 1.44991147518158 C 2.423373222351074 1.872161030769348 2.651890516281128 2.350666284561157 3.003139972686768 2.836390018463135 C 3.363310098648071 3.334110021591187 3.668519973754883 3.750880002975464 3.910390138626099 4.075250148773193 L 3.928359985351562 4.099339962005615 L 3.949079990386963 4.121119976043701 C 4.304600238800049 4.494560241699219 4.500400066375732 4.984230041503906 4.500400066375732 5.499899864196777 C 4.500400066375732 6.602809906005859 3.603110074996948 7.500100135803223 2.500200033187866 7.500100135803223 Z" stroke="none"/>
      <path d="M 2.500200033187866 7.000100135803223 C 3.327409982681274 7.000100135803223 4.000400066375732 6.327110290527344 4.000400066375732 5.499899864196777 C 4.000400066375732 5.113160133361816 3.853569984436035 4.745930194854736 3.586940050125122 4.465869903564453 L 3.545490026473999 4.422329902648926 L 3.509550094604492 4.374130249023438 C 3.26626992225647 4.047860145568848 2.959630012512207 3.629160165786743 2.597970008850098 3.129379987716675 C 2.45656156539917 2.933831930160522 2.333353757858276 2.739654541015625 2.225911378860474 2.549147129058838 C 1.72844660282135 3.449727058410645 1.269971251487732 4.357582569122314 1.177500009536743 4.740730285644531 L 1.157209992408752 4.824769973754883 L 1.122810006141663 4.904079914093018 C 1.041320085525513 5.091929912567139 1 5.292389869689941 1 5.499899864196777 C 1 6.327110290527344 1.672990083694458 7.000100135803223 2.500200033187866 7.000100135803223 M 2.500200033187866 8.000100135803223 C 1.119600057601929 8.000100135803223 3.318786667705353e-08 6.880499839782715 3.318786667705353e-08 5.499899864196777 C 3.318786667705353e-08 5.146739959716797 0.07326003164052963 4.810739994049072 0.2054100334644318 4.506110191345215 C 0.4503800272941589 3.491150140762329 2.177999973297119 0.6309000849723816 2.177999973297119 0.6309000849723816 L 2.500200033187866 6.790160966829717e-08 C 2.500200033187866 6.790160966829717e-08 2.463299989700317 1.236600041389465 3.408299922943115 2.543400049209595 C 3.832119941711426 3.129080057144165 4.121210098266602 3.52154016494751 4.311220169067383 3.776360034942627 C 4.738240242004395 4.224910259246826 5.000400066375732 4.831850051879883 5.000400066375732 5.499899864196777 C 5.000400066375732 6.880499839782715 3.880800008773804 8.000100135803223 2.500200033187866 8.000100135803223 Z" stroke="none" fill="#db2893"/>
    </g>
    <g id="Rectangle_136" data-name="Rectangle 136" transform="translate(13.5 8.845)" fill="#db2893" stroke="#db2893" stroke-width="1">
      <rect width="3" height="11" stroke="none"/>
      <rect x="0.5" y="0.5" width="2" height="10" fill="none"/>
    </g>
    <g id="Union_3" data-name="Union 3" transform="translate(15.057 0) rotate(21)" fill="#db2893">
      <path d="M 2.500200033187866 7.500100135803223 C 1.397289991378784 7.500100135803223 0.5000000596046448 6.602809906005859 0.5000000596046448 5.499899864196777 C 0.5000000596046448 5.223530292510986 0.5552100539207458 4.956120014190674 0.664110004901886 4.705100059509277 L 0.6813100576400757 4.665440082550049 L 0.6914500594139099 4.623420238494873 C 0.8428993225097656 3.995937347412109 1.706029176712036 2.429640531539917 2.274810791015625 1.44991147518158 C 2.423373222351074 1.872161030769348 2.651890516281128 2.350666284561157 3.003139972686768 2.836390018463135 C 3.363310098648071 3.334110021591187 3.668519973754883 3.750880002975464 3.910390138626099 4.075250148773193 L 3.928359985351562 4.099339962005615 L 3.949079990386963 4.121119976043701 C 4.304600238800049 4.494560241699219 4.500400066375732 4.984230041503906 4.500400066375732 5.499899864196777 C 4.500400066375732 6.602809906005859 3.603110074996948 7.500100135803223 2.500200033187866 7.500100135803223 Z" stroke="none"/>
      <path d="M 2.500200033187866 7.000100135803223 C 3.327409982681274 7.000100135803223 4.000400066375732 6.327110290527344 4.000400066375732 5.499899864196777 C 4.000400066375732 5.113160133361816 3.853569984436035 4.745930194854736 3.586940050125122 4.465869903564453 L 3.545490026473999 4.422329902648926 L 3.509550094604492 4.374130249023438 C 3.26626992225647 4.047860145568848 2.959630012512207 3.629160165786743 2.597970008850098 3.129379987716675 C 2.45656156539917 2.933831930160522 2.333353757858276 2.739654541015625 2.225911378860474 2.549147129058838 C 1.72844660282135 3.449727058410645 1.269971251487732 4.357582569122314 1.177500009536743 4.740730285644531 L 1.157209992408752 4.824769973754883 L 1.122810006141663 4.904079914093018 C 1.041320085525513 5.091929912567139 1 5.292389869689941 1 5.499899864196777 C 1 6.327110290527344 1.672990083694458 7.000100135803223 2.500200033187866 7.000100135803223 M 2.500200033187866 8.000100135803223 C 1.119600057601929 8.000100135803223 3.318786667705353e-08 6.880499839782715 3.318786667705353e-08 5.499899864196777 C 3.318786667705353e-08 5.146739959716797 0.07326003164052963 4.810739994049072 0.2054100334644318 4.506110191345215 C 0.4503800272941589 3.491150140762329 2.177999973297119 0.6309000849723816 2.177999973297119 0.6309000849723816 L 2.500200033187866 6.790160966829717e-08 C 2.500200033187866 6.790160966829717e-08 2.463299989700317 1.236600041389465 3.408299922943115 2.543400049209595 C 3.832119941711426 3.129080057144165 4.121210098266602 3.52154016494751 4.311220169067383 3.776360034942627 C 4.738240242004395 4.224910259246826 5.000400066375732 4.831850051879883 5.000400066375732 5.499899864196777 C 5.000400066375732 6.880499839782715 3.880800008773804 8.000100135803223 2.500200033187866 8.000100135803223 Z" stroke="none" fill="#db2893"/>
    </g>
  </g>
</svg>
