<svg id="Icon_material-location-on" data-name="Icon material-location-on" xmlns="http://www.w3.org/2000/svg" width="30" height="30" viewBox="0 0 30 30">
  <path id="Subtraction_3" data-name="Subtraction 3" d="M15.083,30h0c-.013,0-.037,0-.081,0-1.1-1.471-1.811-2.405-3.59-4.493a60.024,60.024,0,0,1-8.932-9.134C.811,14.093,0,12.172,0,10.5,0,7.692,1.559,5.054,4.39,3.073A18.616,18.616,0,0,1,15,0,18.615,18.615,0,0,1,25.61,3.073C28.441,5.054,30,7.691,30,10.5c0,3.347-3.7,7.834-12.372,15-2.572,2.835-2.812,3.886-2.726,4.259a.316.316,0,0,0,.181.236ZM15,6a5,5,0,1,0,5,5A5.005,5.005,0,0,0,15,6Z" fill="#db2893"/>
</svg>
